# xmcd
#
# Track frame offsets: 
#        150
#        17135
#        34323
#        52061
#        72643
#        88731
#        108623
#        125221
#        143955
#        164316
#        179657
#        197424
#        213685
#        235153
#
# Disc length: 4132 seconds
#
# Revision: 0
# Processed by: cddbd v1.5.2PL0 Copyright (c) Steve Scherf et al.
# Submitted via: ExactAudioCopy v0.99pb3
#
DISCID=df10220e
DTITLE=The Bugs Henderson Group - Still Flyin'
DYEAR=1981
DGENRE=Blues
TTITLE0=Baby Ruth
TTITLE1=Heart Attack
TTITLE2=Thirteen Ways
TTITLE3=Judi Likes The Blues
TTITLE4=Hideaway
TTITLE5=Not Guilty
TTITLE6=Drugstore Blues
TTITLE7=Still Flyin'
TTITLE8=Please Have Mercy
TTITLE9=Little Brother
TTITLE10=Funky Beatrice
TTITLE11=Louisiana Women
TTITLE12=Sixty Five
TTITLE13=Audio Liner Notes
EXTD=
EXTT0=
EXTT1=
EXTT2=
EXTT3=
EXTT4=
EXTT5=
EXTT6=
EXTT7=
EXTT8=
EXTT9=
EXTT10=
EXTT11=
EXTT12=
EXTT13=
PLAYORDER=
